<svg width="702" height="558" viewBox="0 0 702 558" fill="none" xmlns="http://www.w3.org/2000/svg">
<path d="M43.2614 314.62C10.0661 326.213 28.6803 309.27 2 286.382V168.077C2 141.324 31.1622 83.9552 35.1952 53.3386C39.2283 22.722 65.9086 43.2321 99.1038 31.6395C132.299 20.0468 132.299 53.3386 161.461 63.4451C184.791 71.5302 179.248 107.636 173.56 124.678C177.49 139.937 185.908 182.463 188.142 230.499C190.375 278.534 171.285 306.594 161.461 314.62H132.299C129.61 312.44 123.985 303.741 122.992 286.382C121.999 269.022 128.783 223.068 132.299 202.26L75.2157 194.829V255.765C75.6293 271.519 69.8176 305.346 43.2614 314.62Z" fill="#31DD9E"/>
<path d="M217.304 301.838C213.374 252.991 205.515 146.853 205.515 113.086L237.159 105.654C239.434 98.8176 249.816 85.382 273.146 86.3332C296.476 87.2844 263.425 182.84 243.984 230.499C247.086 230.499 257.262 231.985 273.146 237.93C293.001 245.361 288.968 278.95 287.727 301.838C286.734 320.149 240.365 309.468 217.304 301.838Z" fill="#31DD9E"/>
<path d="M311.615 273.6C311.615 260.818 322.474 262.304 352.877 246.847C356.91 249.82 366.837 257.311 374.283 263.493C383.59 271.222 380.798 286.382 384.831 301.838C388.864 317.295 362.184 325.916 352.877 334.833C343.57 343.751 328.989 323.538 311.615 314.62C294.242 305.703 311.615 286.382 311.615 273.6Z" fill="#31DD9E"/>
<path d="M452.773 255.765C460.839 237.93 434.159 237.93 416.785 230.499H404.686C412.235 241.497 425.224 263.493 416.785 263.493C406.237 263.493 409.96 314.62 404.686 334.833C399.412 355.046 436.64 359.207 452.773 373.178C468.905 387.149 484.417 348.804 501.79 348.804C515.689 348.804 519.99 307.189 520.404 286.382C519.577 273.204 514.696 245.064 501.79 237.93C485.658 229.013 483.176 255.765 491.242 263.493C499.308 271.222 487.209 286.382 491.242 301.838C495.275 317.295 473.869 334.833 452.773 334.833C431.677 334.833 440.673 301.838 436.64 301.838C432.607 301.838 444.707 273.6 452.773 255.765Z" fill="#31DD9E"/>
<path d="M520.404 142.81C501.169 128.542 538.708 124.678 539.639 105.654L587.725 113.086L599.514 34.0175C603.444 25.4963 616.453 7.20557 637.053 2.21179C657.652 -2.78199 640.052 81.7754 628.676 124.678C649.359 120.814 692.461 117.604 699.41 135.676C706.359 153.749 650.186 157.475 621.231 157.078L599.514 263.493C593.103 287.273 581.769 337.627 587.725 348.804C593.682 359.98 605.926 330.672 611.303 314.62C617.405 319.574 631.096 333.347 637.053 348.804C644.498 368.125 580.28 373.178 561.045 373.178C545.657 373.178 567.457 219.6 580.28 142.81C566.733 147.566 535.792 154.225 520.404 142.81Z" fill="#31DD9E"/>
<path d="M404.686 530.72C395.007 522.635 400.653 464.136 404.686 435.898C410.684 424.503 425.472 401.298 436.64 399.633C447.809 397.969 465.079 440.555 472.318 462.056C478.626 448.977 494.779 422.819 508.925 422.819C526.609 422.819 525.988 484.349 526.919 503.373C527.85 522.397 520.404 554.797 501.79 555.986C486.899 556.937 500.342 508.625 508.925 484.349C501.273 486.727 485.968 493.861 485.968 503.373C485.968 515.263 478.522 530.72 462.7 523.586C450.043 517.879 457.426 495.05 462.7 484.349H436.64V548.852C436.64 566.984 416.785 540.826 404.686 530.72Z" fill="#31DD9E"/>
<path d="M628.676 503.373C628.676 518.592 596.412 509.714 580.28 503.373C573.868 508.426 561.045 520.97 561.045 530.72C561.045 540.47 586.691 538.151 599.514 535.773C603.444 531.711 614.778 526.023 628.676 535.773C646.05 547.96 580.28 555.986 556.391 553.014C532.503 550.041 545.843 503.373 545.843 484.349C545.843 465.325 587.725 453.138 599.514 448.977C611.303 444.815 628.676 484.349 628.676 503.373Z" fill="#31DD9E"/>
<path d="M43.2614 314.62C10.0661 326.213 28.6803 309.27 2 286.382V168.077C2 141.324 31.1622 83.9552 35.1952 53.3386C39.2283 22.722 65.9086 43.2321 99.1038 31.6395C132.299 20.0468 132.299 53.3386 161.461 63.4451C184.791 71.5302 179.248 107.636 173.56 124.678C177.49 139.937 185.908 182.463 188.142 230.499C190.375 278.534 171.285 306.594 161.461 314.62H132.299C129.61 312.44 123.985 303.741 122.992 286.382C121.999 269.022 128.783 223.068 132.299 202.26L75.2157 194.829V255.765C75.6293 271.519 69.8176 305.346 43.2614 314.62Z" stroke="#223AD8" stroke-width="4"/>
<path d="M217.304 301.838C213.374 252.991 205.515 146.853 205.515 113.086L237.159 105.654C239.434 98.8176 249.816 85.382 273.146 86.3332C296.476 87.2844 263.425 182.84 243.984 230.499C247.086 230.499 257.262 231.985 273.146 237.93C293.001 245.361 288.968 278.95 287.727 301.838C286.734 320.149 240.365 309.468 217.304 301.838Z" stroke="#223AD8" stroke-width="4"/>
<path d="M311.615 273.6C311.615 260.818 322.474 262.304 352.877 246.847C356.91 249.82 366.837 257.311 374.283 263.493C383.59 271.222 380.798 286.382 384.831 301.838C388.864 317.295 362.184 325.916 352.877 334.833C343.57 343.751 328.989 323.538 311.615 314.62C294.242 305.703 311.615 286.382 311.615 273.6Z" stroke="#223AD8" stroke-width="4"/>
<path d="M452.773 255.765C460.839 237.93 434.159 237.93 416.785 230.499H404.686C412.235 241.497 425.224 263.493 416.785 263.493C406.237 263.493 409.96 314.62 404.686 334.833C399.412 355.046 436.64 359.207 452.773 373.178C468.905 387.149 484.417 348.804 501.79 348.804C515.689 348.804 519.99 307.189 520.404 286.382C519.577 273.204 514.696 245.064 501.79 237.93C485.658 229.013 483.176 255.765 491.242 263.493C499.308 271.222 487.209 286.382 491.242 301.838C495.275 317.295 473.869 334.833 452.773 334.833C431.677 334.833 440.673 301.838 436.64 301.838C432.607 301.838 444.707 273.6 452.773 255.765Z" stroke="#223AD8" stroke-width="4"/>
<path d="M520.404 142.81C501.169 128.542 538.708 124.678 539.639 105.654L587.725 113.086L599.514 34.0175C603.444 25.4963 616.453 7.20557 637.053 2.21179C657.652 -2.78199 640.052 81.7754 628.676 124.678C649.359 120.814 692.461 117.604 699.41 135.676C706.359 153.749 650.186 157.475 621.231 157.078L599.514 263.493C593.103 287.273 581.769 337.627 587.725 348.804C593.682 359.98 605.926 330.672 611.303 314.62C617.405 319.574 631.096 333.347 637.053 348.804C644.498 368.125 580.28 373.178 561.045 373.178C545.657 373.178 567.457 219.6 580.28 142.81C566.733 147.566 535.792 154.225 520.404 142.81Z" stroke="#223AD8" stroke-width="4"/>
<path d="M404.686 530.72C395.007 522.635 400.653 464.136 404.686 435.898C410.684 424.503 425.472 401.298 436.64 399.633C447.809 397.969 465.079 440.555 472.318 462.056C478.626 448.977 494.779 422.819 508.925 422.819C526.609 422.819 525.988 484.349 526.919 503.373C527.85 522.397 520.404 554.797 501.79 555.986C486.899 556.937 500.342 508.625 508.925 484.349C501.273 486.727 485.968 493.861 485.968 503.373C485.968 515.263 478.522 530.72 462.7 523.586C450.043 517.879 457.426 495.05 462.7 484.349H436.64V548.852C436.64 566.984 416.785 540.826 404.686 530.72Z" stroke="#223AD8" stroke-width="4"/>
<path d="M628.676 503.373C628.676 518.592 596.412 509.714 580.28 503.373C573.868 508.426 561.045 520.97 561.045 530.72C561.045 540.47 586.691 538.151 599.514 535.773C603.444 531.711 614.778 526.023 628.676 535.773C646.05 547.96 580.28 555.986 556.391 553.014C532.503 550.041 545.843 503.373 545.843 484.349C545.843 465.325 587.725 453.138 599.514 448.977C611.303 444.815 628.676 484.349 628.676 503.373Z" stroke="#223AD8" stroke-width="4"/>
</svg>
