<svg width="58" height="160" viewBox="0 0 58 160" fill="none" xmlns="http://www.w3.org/2000/svg">
<path d="M2.16236 131.126C2.45641 125.803 19.1928 78.0279 27.5243 54.8058C25.0738 54.8058 20.173 52.6141 20.173 43.8471C20.173 35.0801 25.0738 30.54 27.5243 29.3659C32.0576 29.105 41.1976 27.0959 41.4917 21.1469C41.7427 16.0688 50.3922 7.34073 54.2144 3.68642C54.4662 3.34448 54.7571 3.03163 55.0916 2.75183C56.7235 1.38651 55.9895 1.98931 54.2144 3.68642C50.5928 8.60597 55.0916 19.546 55.0916 24.6693C55.0916 30.1487 54.3564 35.628 55.0916 43.8471C55.8267 52.0662 53.9889 54.8058 48.843 60.2852C44.7262 64.6687 39.2863 62.1117 37.0809 60.2852C28.5044 85.4642 11.3514 136.605 11.3514 139.736C11.3514 142.867 5.22539 151.217 2.16236 155C2.03984 149.26 1.86831 136.448 2.16236 131.126Z" fill="#31DD9E"/>
<path d="M27.5243 49.3264C26.299 47.5 24.2162 43.4557 25.6864 41.8902C27.5243 39.9332 29.7296 35.2366 32.3026 35.2366C34.3609 35.2366 39.2863 31.3228 41.4917 29.3659L47.3727 19.5813M32.3026 52.0661C32.3026 49.9788 32.3026 45.4126 32.3026 43.8471C32.3026 42.2815 35.4881 39.02 37.0809 37.5849L45.1673 32.497M37.0809 54.8058C38.9187 52.0661 38.5512 46.9781 40.0214 45.4126C41.1976 44.1602 45.4124 42.5425 47.3727 41.8902M41.4917 56.7627C44.4322 55.1972 46.6376 51.1529 47.3727 49.3264M27.5243 54.8058C19.1928 78.0279 2.45641 125.803 2.16236 131.126C1.86831 136.448 2.03984 149.26 2.16236 155C5.22539 151.217 11.3514 142.867 11.3514 139.736C11.3514 136.605 28.5044 85.4642 37.0809 60.2852C39.2863 62.1117 44.7262 64.6687 48.843 60.2852C53.9889 54.8058 55.8267 52.0661 55.0916 43.8471C54.3564 35.628 55.0916 30.1487 55.0916 24.6693C55.0916 19.1899 49.9457 7.05705 55.0916 2.75183C60.2375 -1.55339 41.8592 13.7106 41.4917 21.1469C41.1976 27.0959 32.0576 29.105 27.5243 29.3659C25.0738 30.54 20.173 35.0801 20.173 43.8471C20.173 52.6141 25.0738 54.8058 27.5243 54.8058Z" stroke="#223AD8" stroke-width="3"/>
</svg>
