<svg width="120" height="60" viewBox="0 0 120 60" fill="none" xmlns="http://www.w3.org/2000/svg">
<path d="M64.2203 3.14771L111.423 39.5234L116 43.5652L81.6709 47.6069C80.4312 49.3391 77.2653 53.0344 74.519 53.9582C71.7727 54.882 68.7975 51.6487 67.6532 49.9165L28.4608 58L3 26.8208L11.2962 24.3046L7.57722 19.6034C8.72152 18.7373 11.9256 16.37 15.5873 13.8295C20.1646 10.6538 26.1722 11.8086 30.7494 10.9425C34.4111 10.2497 41.4295 12.5785 44.481 13.8295C46.6743 11.135 51.6901 5.22632 54.2076 3.14771C56.7251 1.0691 61.9316 2.28162 64.2203 3.14771Z" fill="#31DD9E"/>
<path d="M34.7544 53.9582C38.1873 48.5692 46.2547 37.6758 51.0608 37.2139C57.0684 36.6365 61.9316 34.3269 67.6532 37.2139C72.2304 39.5234 75.4726 42.4104 76.5215 43.5652M34.7544 53.9582L11.2962 24.3046M34.7544 53.9582L40.762 51.9374C43.146 48.2806 48.3144 40.9669 49.9165 40.9669C51.919 40.9669 60.7873 38.0799 64.2203 39.5234C66.9666 40.6782 71.0861 42.6991 72.8025 43.5652H76.5215M76.5215 43.5652C78.4287 39.7159 83.1013 32.0173 86.5342 32.0173C90.8253 32.0173 97.119 32.306 99.6937 33.7495C101.753 34.9043 108.371 38.0799 111.423 39.5234M76.5215 43.5652L44.481 13.8295M76.5215 43.5652C79.7637 40.4858 86.8203 34.6156 89.1089 35.7704C91.9696 37.2139 101.982 38.0799 103.127 39.5234C104.042 40.6782 109.039 40.0046 111.423 39.5234M111.423 39.5234L64.2203 3.14771C61.9316 2.28162 56.7251 1.0691 54.2076 3.14771C51.6901 5.22632 46.6743 11.135 44.481 13.8295M111.423 39.5234L116 43.5652L81.6709 47.6069C80.4312 49.3391 77.2653 53.0344 74.519 53.9582C71.7727 54.882 68.7975 51.6487 67.6532 49.9165L28.4608 58L3 26.8208L11.2962 24.3046M44.481 13.8295C41.4295 12.5785 34.4111 10.2497 30.7494 10.9425C26.1722 11.8086 20.1646 10.6538 15.5873 13.8295C11.9256 16.37 8.72152 18.7373 7.57722 19.6034L11.2962 24.3046" stroke="#223AD8" stroke-width="3"/>
</svg>
