<svg width="113" height="79" viewBox="0 0 113 79" fill="none" xmlns="http://www.w3.org/2000/svg">
<path d="M5.80863 70.3055C2.93455 52.2227 -1.08916 15.6489 5.80863 14.0156C12.7064 12.3823 37.0403 10.8073 48.345 10.224C46.1416 7.21022 43.0567 1.35762 48.345 2.0576C53.6333 2.75758 66.0685 2.34926 71.6251 2.0576C73.9244 2.64087 77.8331 4.44907 75.074 7.01572C71.6251 10.224 82.5466 10.224 84.8459 10.224H98.354C101.516 8.96017 107.839 7.19078 107.839 10.224C107.839 13.2573 109.946 49.0145 111 66.5139H98.354H87.7199C85.4207 68.8472 78.9827 74.097 71.6251 76.4303C63.8316 78.9017 59.1338 72.7867 54.3838 68.5555L5.80863 70.3055Z" fill="#31DD9E"/>
<path d="M87.7199 66.5139H98.354H111C109.946 49.0144 107.839 13.2573 107.839 10.224C107.839 7.19078 101.516 8.96017 98.354 10.224C94.6177 10.224 86.6853 10.224 84.8459 10.224C82.5466 10.224 71.6251 10.224 75.074 7.01572C77.8331 4.44907 73.9244 2.64087 71.6251 2.0576C66.0685 2.34926 53.6333 2.75758 48.345 2.0576C43.0567 1.35762 46.1416 7.21022 48.345 10.224C37.0403 10.8073 12.7064 12.3823 5.80863 14.0156C-1.08916 15.6489 2.93455 52.2227 5.80863 70.3055L54.3838 68.5555M87.7199 66.5139C90.7856 60.778 95.7099 48.1395 90.8814 43.4729C84.8459 37.6398 75.3614 30.64 68.4636 32.9733C61.5658 35.3065 48.345 40.5564 48.345 47.8478C48.345 55.1392 46.0458 62.7223 51.7939 66.5139C52.6712 67.0925 53.5284 67.7935 54.3838 68.5555M87.7199 66.5139C85.4207 68.8472 78.9827 74.097 71.6251 76.4303C63.8316 78.9017 59.1338 72.7867 54.3838 68.5555M53.5184 55.4309C53.2299 53.4865 52.826 49.2478 53.5184 47.8478C54.3838 46.0978 57.8295 42.598 60.4162 42.3063C63.0029 42.0146 68.1762 37.0565 71.6251 38.2231C75.074 39.3897 84.8459 42.0146 84.8459 43.4729C84.8459 44.9312 88.5822 53.9726 85.9955 56.5975C83.4088 59.2224 78.5229 69.7221 75.074 69.7221C71.6251 69.7221 62.428 69.4305 60.7036 67.3889C59.324 65.7556 55.3386 58.7364 53.5184 55.4309ZM15.0057 22.1819H29.0887V28.89L15.0057 30.64V22.1819Z" stroke="#223AD8" stroke-width="3"/>
</svg>
