<svg width="440" height="425" viewBox="0 0 440 425" fill="none" xmlns="http://www.w3.org/2000/svg">
<path d="M99.5556 124.826C69.1606 112.258 68.5607 138.314 72.0601 152.914C61.5619 159.579 40.5653 176.527 40.5653 190.999C40.5653 209.09 24.1427 281.407 40.5653 303.5C72.0601 345.87 59.5045 333.82 87 333.82C114.495 333.82 110.5 315.729 110.5 265.266C110.5 224.895 124.052 239.717 150.047 265.266C145.881 277.961 134.55 321.061 122.552 391.9C107.554 480.449 40.5653 353.815 17.0692 333.82C-6.42694 313.825 4.57125 174.813 4.57125 136.727C4.57125 98.642 48.564 56.272 72.0601 31.9925C95.5563 7.71297 137.549 38.1814 194.54 72.4583C251.531 106.735 186.041 152.914 137.549 204.805C89.0573 256.697 137.549 140.536 99.5556 124.826Z" fill="#31DD9E"/>
<path d="M255.53 265.266C304.322 224.895 235.2 92.9292 194.54 31.9925L293.524 18.1863C280.859 22.7884 263.129 38.0861 293.524 62.4607C323.919 86.8353 311.854 175.765 302.022 217.183C308.355 213.057 324.818 202.044 340.016 190.999C359.013 177.193 359.013 72.4583 357.013 44.3701C355.413 21.8996 332.351 6.76064 321.019 2L437 18.1863C413.171 85.1534 360.413 228.323 340.016 265.266C319.619 302.209 306.188 375.873 302.022 408.087C266.195 377.301 206.738 305.637 255.53 265.266Z" fill="#31DD9E"/>
<path d="M99.5556 124.826C69.1606 112.258 68.5607 138.314 72.0601 152.914C61.5619 159.579 40.5653 176.527 40.5653 190.999C40.5653 209.09 24.1427 281.407 40.5653 303.5C72.0601 345.87 59.5045 333.82 87 333.82C114.495 333.82 110.5 315.729 110.5 265.266C110.5 224.895 124.052 239.717 150.047 265.266C145.881 277.961 134.55 321.061 122.552 391.9C107.554 480.449 40.5653 353.815 17.0692 333.82C-6.42694 313.825 4.57125 174.813 4.57125 136.727C4.57125 98.642 48.564 56.272 72.0601 31.9925C95.5563 7.71297 137.549 38.1814 194.54 72.4583C251.531 106.735 186.041 152.914 137.549 204.805C89.0573 256.697 137.549 140.536 99.5556 124.826Z" stroke="#223AD8" stroke-width="4"/>
<path d="M255.53 265.266C304.322 224.895 235.2 92.9292 194.54 31.9925L293.524 18.1863C280.859 22.7884 263.129 38.0861 293.524 62.4607C323.919 86.8353 311.854 175.765 302.022 217.183C308.355 213.057 324.818 202.044 340.016 190.999C359.013 177.193 359.013 72.4583 357.013 44.3701C355.413 21.8996 332.351 6.76064 321.019 2L437 18.1863C413.171 85.1534 360.413 228.323 340.016 265.266C319.619 302.209 306.188 375.873 302.022 408.087C266.195 377.301 206.738 305.637 255.53 265.266Z" stroke="#223AD8" stroke-width="4"/>
</svg>
