<svg width="121" height="110" viewBox="0 0 121 110" fill="none" xmlns="http://www.w3.org/2000/svg">
<path d="M51.9273 29.5882C44.2327 28.6 36.4545 17.098 33.5273 11.4706C30.1818 12.9804 24.4109 18.4706 21.4 18.4706C17.6364 18.4706 10.5273 29.5882 10.1091 34.5294C9.77455 38.4824 3.83636 46.0588 3 49.3529L26.8364 58.8235L43.1455 53.0588L51.9273 107L118 90.5294L96.2545 34.5294H113.4L118 8.17647C113.679 6.11765 103.28 2 96.2545 2C87.4727 2 65.3091 2.82353 69.9091 5.29412C74.5091 7.76471 73.2545 19.2941 73.2545 24.6471C73.2545 30 61.5455 30.8235 51.9273 29.5882Z" fill="#31DD9E" stroke="#223AD8" stroke-width="4"/>
</svg>
