<svg width="630" height="307" viewBox="0 0 630 307" fill="none" xmlns="http://www.w3.org/2000/svg">
<path d="M173.931 153.5H80.4306C78.0973 148.167 77.6306 137 94.4306 135C111.231 133 106.097 127.833 101.431 125.5C92.0973 109.667 73.4306 74 73.4306 58C73.4306 38 44.4306 60.5 35.9306 58C27.4306 55.5 20.9306 187.5 20.9306 205C20.9306 222.5 86.4306 246 101.431 240C116.431 234 103.931 221.5 101.431 211C99.4306 202.6 86.5973 207.5 80.4306 211C78.0973 195.833 76.0306 168.5 86.4306 180.5C96.8306 192.5 155.431 185.5 183.431 180.5C180.264 200.667 173.931 237.1 173.931 221.5C173.931 205.9 145.264 208 130.931 211C130.097 219.833 126.831 243.4 120.431 267C112.431 296.5 32.4306 239 11.4306 230.5C-9.5694 222 9.4306 83.4998 20.9306 32.4998C32.4306 -18.5002 91.9306 26.4998 109.931 32.4998C127.931 38.4998 118.931 102.5 120.431 125.5C121.631 143.9 156.597 151.833 173.931 153.5Z" fill="#31DD9E"/>
<path d="M235.84 205H195.931C199.097 196.833 206.631 177.9 211.431 167.5C217.431 154.5 239.431 135 254.431 125.5C269.431 116 282.431 135 293.931 138.5C305.431 142 288.431 190 288.431 205C288.431 220 288.431 240 298.931 257.5C309.431 275 317.431 282 319.931 293.5C322.431 305 288.431 299.5 276.431 299.5C264.431 299.5 276.431 282 288.431 282C298.031 282 284.431 255.667 276.431 242.5C274.931 248.667 271.731 262.2 270.931 267C269.931 273 228.931 281 195.931 282C162.931 283 195.931 240 195.931 230.5C195.931 221 220.431 230.5 239.431 230.5C258.431 230.5 263.931 221.5 263.931 211V160.5C263.931 140.5 239.431 153.5 228.931 180.5C221.859 198.683 229.174 204.205 235.84 205H239.431C238.323 205.132 237.093 205.149 235.84 205Z" fill="#31DD9E"/>
<path d="M306.931 40.5C304.931 20.9 277.431 26.9999 263.931 32.4998C268.097 26.9999 278.831 14.8 288.431 10C300.431 4 319.931 22 328.931 32.4998C337.931 42.9996 334.931 117.5 334.931 135C334.931 152.5 340.931 180.5 334.931 194.5C330.131 205.7 332.931 231.167 334.931 242.5C341.931 238.5 356.631 232.9 359.431 242.5C362.931 254.5 342.931 267 334.931 275C328.531 281.4 318.264 260.667 313.931 249.5C311.597 240.167 309.531 216.1 319.931 194.5C332.931 167.5 309.431 65 306.931 40.5Z" fill="#31DD9E"/>
<path d="M353.431 32.4998C355.031 19.6997 337.764 6.83322 328.931 2C339.097 2 362.231 4.8 373.431 16C387.431 30 373.431 90.5 373.431 111.5V205C376.097 199.5 382.131 186.9 384.931 180.5C388.431 172.5 393.431 194.5 393.431 211C393.431 224.2 376.097 223.5 367.431 221.5L353.431 205V125.5C352.764 99.8332 351.831 45.3 353.431 32.4998Z" fill="#31DD9E"/>
<path d="M467.931 221.5C470.731 243.1 441.097 236.5 425.931 230.5C425.931 234.5 423.831 243.9 415.431 249.5C407.031 255.1 418.931 273.5 425.931 282C429.097 277 440.331 265.1 459.931 257.5C484.431 248 473.931 257.5 498.431 267C522.931 276.5 481.931 282 473.931 275C465.931 268 435.431 293.5 415.431 299.5C395.431 305.5 397.931 262 393.431 242.5C388.931 223 425.931 187.5 435.431 180.5C444.931 173.5 464.431 194.5 467.931 221.5Z" fill="#31DD9E"/>
<path d="M513.431 205C514.231 184.6 493.431 180.167 482.931 180.5C486.931 177.833 497.031 171.5 505.431 167.5C513.831 163.5 525.264 183.833 529.931 194.5C535.764 192.5 551.831 188.3 569.431 187.5C587.031 186.7 586.764 209.833 584.431 221.5V240C579.764 236.833 570.231 226.6 569.431 211C568.431 191.5 554.431 211 538.931 211C526.531 211 533.764 230.333 538.931 240V293.5C538.931 308.3 527.264 299.667 521.431 293.5C518.431 272.5 512.631 225.4 513.431 205Z" fill="#31DD9E"/>
<path d="M600.931 194.5C601.731 172.9 594.931 176.167 591.431 180.5C591.431 176.167 593.331 164.7 600.931 153.5C610.431 139.5 591.431 138.5 591.431 125.5C591.431 112.5 608.931 120 611.431 135C613.931 150 617.431 153.5 625.431 160.5C633.431 167.5 617.431 180.5 611.431 180.5C605.431 180.5 611.431 187.5 617.431 205C622.231 219 615.431 234.167 611.431 240V282C611.431 297 611.431 299.5 605.431 304C599.431 308.5 591.431 299.5 591.431 293.5C591.431 287.5 591.431 282 600.931 242.5C610.431 203 599.931 221.5 600.931 194.5Z" fill="#31DD9E"/>
<path d="M80.4306 153.5H173.931C156.597 151.833 121.631 143.9 120.431 125.5C118.931 102.5 127.931 38.4998 109.931 32.4998C91.9306 26.4998 32.4306 -18.5002 20.9306 32.4998C9.4306 83.4998 -9.5694 222 11.4306 230.5C32.4306 239 112.431 296.5 120.431 267C126.831 243.4 130.097 219.833 130.931 211C145.264 208 173.931 205.9 173.931 221.5C173.931 237.1 180.264 200.667 183.431 180.5C155.431 185.5 96.8306 192.5 86.4306 180.5C76.0306 168.5 78.0973 195.833 80.4306 211C86.5973 207.5 99.4306 202.6 101.431 211C103.931 221.5 116.431 234 101.431 240C86.4306 246 20.9306 222.5 20.9306 205C20.9306 187.5 27.4306 55.5 35.9306 58C44.4306 60.5 73.4306 38 73.4306 58C73.4306 74 92.0973 109.667 101.431 125.5C106.097 127.833 111.231 133 94.4306 135C77.6306 137 78.0973 148.167 80.4306 153.5ZM195.931 205H239.431C232.431 205.833 220.531 202.1 228.931 180.5C239.431 153.5 263.931 140.5 263.931 160.5C263.931 180.5 263.931 200.5 263.931 211C263.931 221.5 258.431 230.5 239.431 230.5C220.431 230.5 195.931 221 195.931 230.5C195.931 240 162.931 283 195.931 282C228.931 281 269.931 273 270.931 267C271.731 262.2 274.931 248.667 276.431 242.5C284.431 255.667 298.031 282 288.431 282C276.431 282 264.431 299.5 276.431 299.5C288.431 299.5 322.431 305 319.931 293.5C317.431 282 309.431 275 298.931 257.5C288.431 240 288.431 220 288.431 205C288.431 190 305.431 142 293.931 138.5C282.431 135 269.431 116 254.431 125.5C239.431 135 217.431 154.5 211.431 167.5C206.631 177.9 199.097 196.833 195.931 205ZM263.931 32.4998C277.431 26.9999 304.931 20.9 306.931 40.5C309.431 65 332.931 167.5 319.931 194.5C309.531 216.1 311.597 240.167 313.931 249.5C318.264 260.667 328.531 281.4 334.931 275C342.931 267 362.931 254.5 359.431 242.5C356.631 232.9 341.931 238.5 334.931 242.5C332.931 231.167 330.131 205.7 334.931 194.5C340.931 180.5 334.931 152.5 334.931 135C334.931 117.5 337.931 42.9996 328.931 32.4998C319.931 22 300.431 4 288.431 10C278.831 14.8 268.097 26.9999 263.931 32.4998ZM328.931 2C337.764 6.83322 355.031 19.6997 353.431 32.4998C351.831 45.3 352.764 99.8332 353.431 125.5V205L367.431 221.5C376.097 223.5 393.431 224.2 393.431 211C393.431 194.5 388.431 172.5 384.931 180.5C382.131 186.9 376.097 199.5 373.431 205C373.431 180.833 373.431 128.3 373.431 111.5C373.431 90.5 387.431 30 373.431 16C362.231 4.8 339.097 2 328.931 2ZM425.931 230.5C441.097 236.5 470.731 243.1 467.931 221.5C464.431 194.5 444.931 173.5 435.431 180.5C425.931 187.5 388.931 223 393.431 242.5C397.931 262 395.431 305.5 415.431 299.5C435.431 293.5 465.931 268 473.931 275C481.931 282 522.931 276.5 498.431 267C473.931 257.5 484.431 248 459.931 257.5C440.331 265.1 429.097 277 425.931 282C418.931 273.5 407.031 255.1 415.431 249.5C423.831 243.9 425.931 234.5 425.931 230.5ZM482.931 180.5C493.431 180.167 514.231 184.6 513.431 205C512.631 225.4 518.431 272.5 521.431 293.5C527.264 299.667 538.931 308.3 538.931 293.5C538.931 278.7 538.931 251.667 538.931 240C533.764 230.333 526.531 211 538.931 211C554.431 211 568.431 191.5 569.431 211C570.231 226.6 579.764 236.833 584.431 240V221.5C586.764 209.833 587.031 186.7 569.431 187.5C551.831 188.3 535.764 192.5 529.931 194.5C525.264 183.833 513.831 163.5 505.431 167.5C497.031 171.5 486.931 177.833 482.931 180.5ZM591.431 180.5C594.931 176.167 601.731 172.9 600.931 194.5C599.931 221.5 610.431 203 600.931 242.5C591.431 282 591.431 287.5 591.431 293.5C591.431 299.5 599.431 308.5 605.431 304C611.431 299.5 611.431 297 611.431 282C611.431 270 611.431 249 611.431 240C615.431 234.167 622.231 219 617.431 205C611.431 187.5 605.431 180.5 611.431 180.5C617.431 180.5 633.431 167.5 625.431 160.5C617.431 153.5 613.931 150 611.431 135C608.931 120 591.431 112.5 591.431 125.5C591.431 138.5 610.431 139.5 600.931 153.5C593.331 164.7 591.431 176.167 591.431 180.5Z" stroke="#223AD8" stroke-width="3"/>
</svg>
