<svg width="997" height="433" viewBox="0 0 997 433" fill="none" xmlns="http://www.w3.org/2000/svg">
<path d="M4.12888 140.633C-2.06071 122.027 6.70787 112.767 11.8659 110.462L26.1495 126.804C27.935 127.852 36.5052 129.319 56.5023 126.804C81.4987 123.662 80.3084 104.176 88.0454 91.605C95.7824 79.0338 138.038 50.7485 132.682 60.1769C127.325 69.6054 148.156 98.5192 173.152 110.462C198.149 122.405 182.675 151.318 183.27 174.575C183.865 197.832 174.343 227.374 166.01 250.631C157.678 273.888 178.509 293.373 189.817 309.716C201.124 326.059 189.817 353.715 189.817 376.344C189.817 398.972 145.18 395.2 138.038 408.4C130.896 421.6 63.6441 408.4 26.1495 408.4C-11.3451 408.4 28.5301 376.972 11.8659 353.715V293.373C11.8659 278.917 28.5301 256.288 52.9314 238.06C72.4524 223.477 71.7779 244.136 69.0005 256.288C57.891 277.24 36.0291 326.059 37.4574 353.715C39.2429 388.286 69.0005 367.544 124.945 368.801C169.7 369.807 148.751 318.935 132.682 293.373C134.467 264.25 141.49 201.478 155.298 183.375C172.557 160.747 142.799 140.633 138.038 122.405C134.229 107.822 109.471 116.328 97.5679 122.405C87.6486 128.481 68.0483 142.77 69.0005 151.318C70.1908 162.004 41.6235 172.69 11.8659 165.147C-17.8918 157.604 36.2671 168.29 4.12888 140.633Z" fill="#31DD9E"/>
<path d="M226.121 302.173C240.405 310.973 216.003 368.801 217.194 376.344C239.809 373.829 289.207 368.801 305.871 368.801C326.702 368.801 301.11 275.774 313.013 256.288C324.916 236.803 293.968 200.346 285.041 165.147C276.114 129.947 217.194 183.375 203.505 183.375C189.817 183.375 195.768 238.06 195.768 256.288C195.768 274.517 211.837 293.373 226.121 302.173Z" fill="#31DD9E"/>
<path d="M427.878 183.375C423.513 180.442 416.213 169.924 421.926 151.318L380.265 140.633C370.346 148.804 347.294 165.147 334.439 165.147C318.37 165.147 334.439 199.718 341.58 224.232C348.722 248.746 355.864 228.632 371.933 224.232C388.002 219.832 388.002 238.06 404.667 256.288C421.331 274.517 380.265 287.088 380.265 293.373C380.265 298.402 349.714 286.25 334.439 279.545V322.287C339.597 318.097 355.983 308.207 380.265 302.173C410.618 294.631 412.404 277.659 427.878 266.974C443.352 256.288 436.805 250.631 435.019 238.06C433.234 225.489 399.31 213.546 388.002 213.546C376.694 213.546 367.767 189.661 371.933 174.575C375.266 162.507 410.618 175.413 427.878 183.375Z" fill="#31DD9E"/>
<path d="M449.303 183.375C438.352 183.375 444.74 154.88 449.303 140.633C458.627 146.709 481.56 157.353 498.701 151.318C520.126 143.776 515.96 140.633 527.268 134.976C536.314 130.45 531.037 153.204 527.268 165.147C527.268 168.29 519.769 174.575 489.773 174.575H467.158L483.822 200.346C485.806 202.651 491.559 208.518 498.701 213.546C505.843 218.575 524.689 206.841 533.22 200.346C534.608 214.594 536.552 240.826 533.22 231.774C529.887 222.723 502.867 228.003 489.773 231.774L477.275 279.545L533.22 266.974C528.458 271.164 517.27 282.311 510.604 293.373C503.938 304.436 457.437 297.983 435.019 293.373C439.781 288.764 450.493 279.545 455.255 279.545C461.206 279.545 465.372 232.403 467.158 224.232C468.943 216.06 462.992 183.375 449.303 183.375Z" fill="#31DD9E"/>
<path d="M560.597 183.375C561.787 166.404 553.455 151.318 549.289 140.633L527.268 110.462C532.625 110.462 546.789 111.719 560.597 116.747C574.404 121.776 594.917 99.5668 603.448 87.8336C611.185 105.433 624.159 137.993 614.16 127.433C604.162 116.873 583.808 138.957 574.88 151.318C574.88 155.928 576.309 167.032 582.022 174.575C587.736 182.118 607.415 171.432 616.541 165.147V224.232C615.152 220.67 610.59 210.906 603.448 200.346C596.306 189.786 586.188 195.946 582.022 200.346C579.642 210.822 574.88 235.546 574.88 250.631C574.88 269.488 573.69 279.545 582.022 293.373C590.354 307.202 540.361 287.088 549.289 279.545C558.216 272.002 559.406 200.346 560.597 183.375Z" fill="#31DD9E"/>
<path d="M647.489 213.546C653.679 204.998 635.388 126.176 625.468 87.8336L633.8 52.6342C628.047 49.0723 613.922 36.4173 603.448 14.2919C590.354 -13.3648 661.177 14.2919 674.271 14.2919C687.364 14.2919 694.506 52.6342 692.125 67.7197C690.221 79.788 670.7 62.6912 661.177 52.6342L647.489 87.8336C649.87 95.3764 636.195 116.747 651.907 116.747C667.619 116.747 659.049 159.141 671.547 174.575L661.177 238.06L667.129 274.517H620.112L633.8 250.631C635.784 241.831 641.299 222.094 647.489 213.546Z" fill="#31DD9E"/>
<path d="M722.478 183.375C752.831 153.204 704.029 122.405 704.029 110.462L743.904 87.8336L781.398 151.318V91.605L817.703 87.8336V151.318C819.29 172.061 823.178 215.683 826.035 224.232C828.892 232.78 807.387 237.012 796.277 238.06L743.904 134.976C748.863 148.176 755.807 179.729 743.904 200.346C732.001 220.963 724.66 234.079 722.478 238.06H692.125C692.125 229.889 698.196 207.512 722.478 183.375Z" fill="#31DD9E"/>
<path d="M863.529 183.375C880.67 169.798 856.388 114.024 842.104 87.8336L902.214 53.2627L911.142 81.548C908.563 80.7099 899.715 78.0281 884.955 74.0053C870.195 69.9825 869.679 98.3097 871.266 112.976C872.655 117.167 878.289 126.679 889.716 131.204C901.143 135.73 915.109 116.747 920.664 106.69C924.83 121.566 932.21 149.684 928.401 143.147C923.64 134.976 890.906 148.804 887.336 148.804C883.765 148.804 885.55 177.089 884.955 183.375C884.479 188.404 918.482 174.994 935.543 167.661L937.924 200.346H917.688C892.494 200.346 846.389 196.952 863.529 183.375Z" fill="#31DD9E"/>
<path d="M341.58 390.172C341.58 371.944 351.698 353.715 355.269 335.487C363.601 334.23 383.598 331.339 396.93 329.83C413.594 327.944 404.667 355.601 410.023 368.801C414.308 379.361 386.415 381.582 371.933 381.372C377.29 384.305 388.002 395.326 388.002 415.943C388.002 436.56 345.35 432.705 334.439 421.6C329.876 421.6 341.58 404.755 341.58 390.172Z" fill="#31DD9E"/>
<path d="M435.019 345.544C440.733 358.115 425.497 401.486 417.165 421.6L441.566 426V394.572L455.255 390.172L470.133 415.943H495.13C496.32 413.429 492.987 402.115 470.133 376.972C447.28 351.83 460.611 331.297 470.133 324.173L417.165 329.83C420.736 329.83 429.306 332.973 435.019 345.544Z" fill="#31DD9E"/>
<path d="M518.936 345.544C535.124 353.59 531.236 390.801 527.268 408.4L549.289 415.943V376.972L574.88 408.4H609.399C612.97 408.4 617.969 404 609.399 386.401C600.829 368.801 622.096 336.325 633.8 322.287H603.448L582.022 381.372C579.642 377.182 572.024 367.167 560.597 360.63C549.17 354.092 555.835 333.601 560.597 324.173L495.13 329.83C496.32 331.716 502.748 337.498 518.936 345.544Z" fill="#31DD9E"/>
<path d="M674.271 368.801C684.746 348.184 673.874 315.792 667.129 302.173L692.125 283.945V322.287C692.125 342.401 704.029 324.173 715.336 324.173C724.383 324.173 773.066 281.012 796.277 259.431L808.775 279.545L704.029 356.23L817.703 394.572V421.6L692.125 368.801L674.271 408.4H647.489C652.052 403.791 663.796 389.418 674.271 368.801Z" fill="#31DD9E"/>
<path d="M871.266 336.116C877.456 320.024 857.578 258.174 846.865 229.26L975.418 200.346L992.082 259.431C984.742 256.498 964.348 246.986 941.494 232.403C918.641 217.82 897.453 267.393 889.716 294.002C893.882 298.402 907.452 307.956 928.401 310.973C949.35 313.99 979.584 287.926 992.082 274.517C991.884 299.449 989.94 345.293 983.75 329.201C976.013 309.087 920.664 344.287 902.214 343.658C887.455 343.156 884.558 381.163 884.955 400.229C907.968 392.896 959.944 377.224 983.75 373.201C1007.56 369.178 988.115 403.791 975.418 421.6C928.599 421.6 836.867 420.971 844.485 418.457C854.007 415.314 863.529 356.23 871.266 336.116Z" fill="#31DD9E"/>
<path d="M4.12888 140.633C-2.06071 122.027 6.70787 112.767 11.8659 110.462L26.1495 126.804C27.935 127.852 36.5052 129.319 56.5023 126.804C81.4987 123.662 80.3084 104.176 88.0454 91.605C95.7824 79.0338 138.038 50.7485 132.682 60.1769C127.325 69.6054 148.156 98.5192 173.152 110.462C198.149 122.405 182.675 151.318 183.27 174.575C183.865 197.832 174.343 227.374 166.01 250.631C157.678 273.888 178.509 293.373 189.817 309.716C201.124 326.059 189.817 353.715 189.817 376.344C189.817 398.972 145.18 395.2 138.038 408.4C130.896 421.6 63.6441 408.4 26.1495 408.4C-11.3451 408.4 28.5301 376.972 11.8659 353.715V293.373C11.8659 278.917 28.5301 256.288 52.9314 238.06C72.4524 223.477 71.7779 244.136 69.0005 256.288C57.891 277.24 36.0291 326.059 37.4574 353.715C39.2429 388.286 69.0005 367.544 124.945 368.801C169.7 369.807 148.751 318.935 132.682 293.373C134.467 264.25 141.49 201.478 155.298 183.375C172.557 160.747 142.799 140.633 138.038 122.405C134.229 107.822 109.471 116.328 97.5679 122.405C87.6486 128.481 68.0483 142.77 69.0005 151.318C70.1908 162.004 41.6235 172.69 11.8659 165.147C-17.8918 157.604 36.2671 168.29 4.12888 140.633Z" stroke="#223AD8" stroke-width="4"/>
<path d="M226.121 302.173C240.405 310.973 216.003 368.801 217.194 376.344C239.809 373.829 289.207 368.801 305.871 368.801C326.702 368.801 301.11 275.774 313.013 256.288C324.916 236.803 293.968 200.346 285.041 165.147C276.114 129.947 217.194 183.375 203.505 183.375C189.817 183.375 195.768 238.06 195.768 256.288C195.768 274.517 211.837 293.373 226.121 302.173Z" stroke="#223AD8" stroke-width="4"/>
<path d="M427.878 183.375C423.513 180.442 416.213 169.924 421.926 151.318L380.265 140.633C370.346 148.804 347.294 165.147 334.439 165.147C318.37 165.147 334.439 199.718 341.58 224.232C348.722 248.746 355.864 228.632 371.933 224.232C388.002 219.832 388.002 238.06 404.667 256.288C421.331 274.517 380.265 287.088 380.265 293.373C380.265 298.402 349.714 286.25 334.439 279.545V322.287C339.597 318.097 355.983 308.207 380.265 302.173C410.618 294.631 412.404 277.659 427.878 266.974C443.352 256.288 436.805 250.631 435.019 238.06C433.234 225.489 399.31 213.546 388.002 213.546C376.694 213.546 367.767 189.661 371.933 174.575C375.266 162.507 410.618 175.413 427.878 183.375Z" stroke="#223AD8" stroke-width="4"/>
<path d="M449.303 183.375C438.352 183.375 444.74 154.88 449.303 140.633C458.627 146.709 481.56 157.353 498.701 151.318C520.126 143.776 515.96 140.633 527.268 134.976C536.314 130.45 531.037 153.204 527.268 165.147C527.268 168.29 519.769 174.575 489.773 174.575H467.158L483.822 200.346C485.806 202.651 491.559 208.518 498.701 213.546C505.843 218.575 524.689 206.841 533.22 200.346C534.608 214.594 536.552 240.826 533.22 231.774C529.887 222.723 502.867 228.003 489.773 231.774L477.275 279.545L533.22 266.974C528.458 271.164 517.27 282.311 510.604 293.373C503.938 304.436 457.437 297.983 435.019 293.373C439.781 288.764 450.493 279.545 455.255 279.545C461.206 279.545 465.372 232.403 467.158 224.232C468.943 216.06 462.992 183.375 449.303 183.375Z" stroke="#223AD8" stroke-width="4"/>
<path d="M560.597 183.375C561.787 166.404 553.455 151.318 549.289 140.633L527.268 110.462C532.625 110.462 546.789 111.719 560.597 116.747C574.404 121.776 594.917 99.5668 603.448 87.8336C611.185 105.433 624.159 137.993 614.16 127.433C604.162 116.873 583.808 138.957 574.88 151.318C574.88 155.928 576.309 167.032 582.022 174.575C587.736 182.118 607.415 171.432 616.541 165.147V224.232C615.152 220.67 610.59 210.906 603.448 200.346C596.306 189.786 586.188 195.946 582.022 200.346C579.642 210.822 574.88 235.546 574.88 250.631C574.88 269.488 573.69 279.545 582.022 293.373C590.354 307.202 540.361 287.088 549.289 279.545C558.216 272.002 559.406 200.346 560.597 183.375Z" stroke="#223AD8" stroke-width="4"/>
<path d="M647.489 213.546C653.679 204.998 635.388 126.176 625.468 87.8336L633.8 52.6342C628.047 49.0723 613.922 36.4173 603.448 14.2919C590.354 -13.3648 661.177 14.2919 674.271 14.2919C687.364 14.2919 694.506 52.6342 692.125 67.7197C690.221 79.788 670.7 62.6912 661.177 52.6342L647.489 87.8336C649.87 95.3764 636.195 116.747 651.907 116.747C667.619 116.747 659.049 159.141 671.547 174.575L661.177 238.06L667.129 274.517H620.112L633.8 250.631C635.784 241.831 641.299 222.094 647.489 213.546Z" stroke="#223AD8" stroke-width="4"/>
<path d="M722.478 183.375C752.831 153.204 704.029 122.405 704.029 110.462L743.904 87.8336L781.398 151.318V91.605L817.703 87.8336V151.318C819.29 172.061 823.178 215.683 826.035 224.232C828.892 232.78 807.387 237.012 796.277 238.06L743.904 134.976C748.863 148.176 755.807 179.729 743.904 200.346C732.001 220.963 724.66 234.079 722.478 238.06H692.125C692.125 229.889 698.196 207.512 722.478 183.375Z" stroke="#223AD8" stroke-width="4"/>
<path d="M863.529 183.375C880.67 169.798 856.388 114.024 842.104 87.8336L902.214 53.2627L911.142 81.548C908.563 80.7099 899.715 78.0281 884.955 74.0053C870.195 69.9825 869.679 98.3097 871.266 112.976C872.655 117.167 878.289 126.679 889.716 131.204C901.143 135.73 915.109 116.747 920.664 106.69C924.83 121.566 932.21 149.684 928.401 143.147C923.64 134.976 890.906 148.804 887.336 148.804C883.765 148.804 885.55 177.089 884.955 183.375C884.479 188.404 918.482 174.994 935.543 167.661L937.924 200.346H917.688C892.494 200.346 846.389 196.952 863.529 183.375Z" stroke="#223AD8" stroke-width="4"/>
<path d="M341.58 390.172C341.58 371.944 351.698 353.715 355.269 335.487C363.601 334.23 383.598 331.339 396.93 329.83C413.594 327.944 404.667 355.601 410.023 368.801C414.308 379.361 386.415 381.582 371.933 381.372C377.29 384.305 388.002 395.326 388.002 415.943C388.002 436.56 345.35 432.705 334.439 421.6C329.876 421.6 341.58 404.755 341.58 390.172Z" stroke="#223AD8" stroke-width="4"/>
<path d="M435.019 345.544C440.733 358.115 425.497 401.486 417.165 421.6L441.566 426V394.572L455.255 390.172L470.133 415.943H495.13C496.32 413.429 492.987 402.115 470.133 376.972C447.28 351.83 460.611 331.297 470.133 324.173L417.165 329.83C420.736 329.83 429.306 332.973 435.019 345.544Z" stroke="#223AD8" stroke-width="4"/>
<path d="M518.936 345.544C535.124 353.59 531.236 390.801 527.268 408.4L549.289 415.943V376.972L574.88 408.4H609.399C612.97 408.4 617.969 404 609.399 386.401C600.829 368.801 622.096 336.325 633.8 322.287H603.448L582.022 381.372C579.642 377.182 572.024 367.167 560.597 360.63C549.17 354.092 555.835 333.601 560.597 324.173L495.13 329.83C496.32 331.716 502.748 337.498 518.936 345.544Z" stroke="#223AD8" stroke-width="4"/>
<path d="M674.271 368.801C684.746 348.184 673.874 315.792 667.129 302.173L692.125 283.945V322.287C692.125 342.401 704.029 324.173 715.336 324.173C724.383 324.173 773.066 281.012 796.277 259.431L808.775 279.545L704.029 356.23L817.703 394.572V421.6L692.125 368.801L674.271 408.4H647.489C652.052 403.791 663.796 389.418 674.271 368.801Z" stroke="#223AD8" stroke-width="4"/>
<path d="M871.266 336.116C877.456 320.024 857.578 258.174 846.865 229.26L975.418 200.346L992.082 259.431C984.742 256.498 964.348 246.986 941.494 232.403C918.641 217.82 897.453 267.393 889.716 294.002C893.882 298.402 907.452 307.956 928.401 310.973C949.35 313.99 979.584 287.926 992.082 274.517C991.884 299.449 989.94 345.293 983.75 329.201C976.013 309.087 920.664 344.287 902.214 343.658C887.455 343.156 884.558 381.163 884.955 400.229C907.968 392.896 959.944 377.224 983.75 373.201C1007.56 369.178 988.115 403.791 975.418 421.6C928.599 421.6 836.867 420.971 844.485 418.457C854.007 415.314 863.529 356.23 871.266 336.116Z" stroke="#223AD8" stroke-width="4"/>
</svg>
