<svg width="839" height="301" viewBox="0 0 839 301" fill="none" xmlns="http://www.w3.org/2000/svg">
<path d="M2 107.564C2 88.6006 23.9205 88.1697 52.3175 74.8093V170.056C59.6244 144.628 78.0243 93.2552 93.1694 91.1865C108.314 89.1178 137.342 153.822 149.963 186.433C136.346 149.225 117.282 74.8093 149.963 74.8093C190.815 74.8093 197.292 214.016 200.779 241.168C204.266 268.319 181.848 295.902 149.963 282.111C124.456 271.078 101.473 202.81 93.1694 170.056C94.3318 201.949 92.173 271.767 74.238 295.902C51.8193 326.071 2 126.527 2 107.564Z" fill="#31DD9E"/>
<path d="M311.876 186.433C322.637 199.535 271.523 205.684 244.62 207.12V255.39C267.039 255.39 307.691 252.546 290.952 241.168C274.213 229.79 297.927 224.934 311.876 223.929C318.353 229.675 332.003 244.012 334.793 255.39C338.28 269.612 267.039 282.111 225.191 265.734C183.342 249.356 226.685 160.574 244.62 146.352C262.555 132.13 298.425 170.056 311.876 186.433Z" fill="#31DD9E"/>
<path d="M361.696 255.39C342.565 255.39 320.512 104.834 311.876 29.5563C319.515 26.5395 337.184 22.3159 346.75 29.5563C356.315 36.7968 360.699 128.969 361.696 178.245C376.641 178.245 410.12 182.382 424.468 198.932C442.403 219.619 385.609 255.39 361.696 255.39Z" fill="#31DD9E"/>
<path d="M402.547 42.4863C402.547 52.8302 445.06 179.251 466.316 241.168H489.233C502.186 241.168 489.233 233.841 489.233 216.602C489.233 202.811 453.695 116.327 435.926 74.8093C443.565 68.6319 472.022 65.5861 478 54.5533C485.473 40.7623 451.869 5.94808 435.926 2.50024C419.984 -0.947608 402.547 29.5563 402.547 42.4863Z" fill="#31DD9E"/>
<path d="M524.107 113.598C508.164 103.254 496.706 135.147 489.233 158.851L509.659 170.056C509.659 166.321 512.548 156.351 524.107 146.352C535.665 136.353 534.901 142.186 533.074 146.352L549.016 198.932C535.897 201.661 509.659 210.482 509.659 223.929C509.659 240.737 534.569 255.39 549.016 255.39C563.464 255.39 558.98 241.168 558.98 223.929C558.98 210.137 568.612 218.182 573.428 223.929L602.323 241.168L609.796 186.433C606.308 193.329 596.444 207.12 584.886 207.12C570.438 207.12 558.98 158.851 558.98 146.352C558.98 133.853 540.049 123.941 524.107 113.598Z" fill="#31DD9E"/>
<path d="M639.189 186.433C598.537 186.433 622.251 144.772 639.189 123.941C660.445 141.755 705.847 179.193 717.406 186.433C731.853 195.484 747.795 241.168 746.799 246.771C745.803 252.373 685.023 241.168 663.102 231.686C646.447 224.482 640.457 233.814 639.328 240.185L639.189 241.168C639.223 240.85 639.269 240.522 639.328 240.185L645.167 198.932L656.626 216.602C672.07 221.63 707.741 231.686 726.871 231.686C746.002 231.686 692.33 183.129 663.102 158.851C672.07 168.045 679.842 186.433 639.189 186.433Z" fill="#31DD9E"/>
<path d="M755.766 118.338C764.734 133.423 732.849 123.941 717.406 123.941C713.918 129.4 707.143 141.525 707.94 146.352C708.936 152.386 739.326 158.851 736.337 146.352C733.945 136.353 748.294 134.428 755.766 134.716L770.712 146.352C762.741 154.253 742.813 170.056 726.871 170.056C706.943 170.056 686.019 130.406 680.539 113.598C675.059 96.7894 708.936 89.4627 726.871 88.6008C744.806 87.7388 746.799 103.254 755.766 118.338Z" fill="#31DD9E"/>
<path d="M815.55 64.4659C816.347 56.1911 801.932 54.4097 794.625 54.5533H770.712C758.257 54.5533 746.799 79.5502 755.766 94.2035C762.94 105.926 788.979 101.961 801.102 98.5133C800.604 101.243 802.796 109.029 815.55 118.338C831.492 129.975 808.077 113.598 794.625 106.702C781.174 99.8063 784.163 113.598 794.625 123.941C805.088 134.285 823.023 128.682 833.485 128.682C843.947 128.682 829.001 104.116 815.55 94.2035C802.098 84.291 781.174 88.6008 770.712 79.5502C760.25 70.4996 794.625 74.8093 799.607 73.5165C804.589 72.2236 814.553 74.8093 815.55 64.4659Z" fill="#31DD9E"/>
<path d="M2 107.564C2 88.6006 23.9205 88.1697 52.3175 74.8093V170.056C59.6244 144.628 78.0243 93.2552 93.1694 91.1865C108.314 89.1178 137.342 153.822 149.963 186.433C136.346 149.225 117.282 74.8093 149.963 74.8093C190.815 74.8093 197.292 214.016 200.779 241.168C204.266 268.319 181.848 295.902 149.963 282.111C124.456 271.078 101.473 202.81 93.1694 170.056C94.3318 201.949 92.173 271.767 74.238 295.902C51.8193 326.071 2 126.527 2 107.564Z" stroke="#223AD8" stroke-width="4"/>
<path d="M311.876 186.433C322.637 199.535 271.523 205.684 244.62 207.12V255.39C267.039 255.39 307.691 252.546 290.952 241.168C274.213 229.79 297.927 224.934 311.876 223.929C318.353 229.675 332.003 244.012 334.793 255.39C338.28 269.612 267.039 282.111 225.191 265.734C183.342 249.356 226.685 160.574 244.62 146.352C262.555 132.13 298.425 170.056 311.876 186.433Z" stroke="#223AD8" stroke-width="4"/>
<path d="M361.696 255.39C342.565 255.39 320.512 104.834 311.876 29.5563C319.515 26.5395 337.184 22.3159 346.75 29.5563C356.315 36.7968 360.699 128.969 361.696 178.245C376.641 178.245 410.12 182.382 424.468 198.932C442.403 219.619 385.609 255.39 361.696 255.39Z" stroke="#223AD8" stroke-width="4"/>
<path d="M402.547 42.4863C402.547 52.8302 445.06 179.251 466.316 241.168H489.233C502.186 241.168 489.233 233.841 489.233 216.602C489.233 202.811 453.695 116.327 435.926 74.8093C443.565 68.6319 472.022 65.5861 478 54.5533C485.473 40.7623 451.869 5.94808 435.926 2.50024C419.984 -0.947608 402.547 29.5563 402.547 42.4863Z" stroke="#223AD8" stroke-width="4"/>
<path d="M524.107 113.598C508.164 103.254 496.706 135.147 489.233 158.851L509.659 170.056C509.659 166.321 512.548 156.351 524.107 146.352C535.665 136.353 534.901 142.186 533.074 146.352L549.016 198.932C535.897 201.661 509.659 210.482 509.659 223.929C509.659 240.737 534.569 255.39 549.016 255.39C563.464 255.39 558.98 241.168 558.98 223.929C558.98 210.137 568.612 218.182 573.428 223.929L602.323 241.168L609.796 186.433C606.308 193.329 596.444 207.12 584.886 207.12C570.438 207.12 558.98 158.851 558.98 146.352C558.98 133.853 540.049 123.941 524.107 113.598Z" stroke="#223AD8" stroke-width="4"/>
<path d="M639.189 186.433C598.537 186.433 622.251 144.772 639.189 123.941C660.445 141.755 705.847 179.193 717.406 186.433C731.853 195.484 747.795 241.168 746.799 246.771C745.803 252.373 685.023 241.168 663.102 231.686C646.447 224.482 640.457 233.814 639.328 240.185L639.189 241.168C639.223 240.85 639.269 240.522 639.328 240.185L645.167 198.932L656.626 216.602C672.07 221.63 707.741 231.686 726.871 231.686C746.002 231.686 692.33 183.129 663.102 158.851C672.07 168.045 679.842 186.433 639.189 186.433Z" stroke="#223AD8" stroke-width="4"/>
<path d="M755.766 118.338C764.734 133.423 732.849 123.941 717.406 123.941C713.918 129.4 707.143 141.525 707.94 146.352C708.936 152.386 739.326 158.851 736.337 146.352C733.945 136.353 748.294 134.428 755.766 134.716L770.712 146.352C762.741 154.253 742.813 170.056 726.871 170.056C706.943 170.056 686.019 130.406 680.539 113.598C675.059 96.7894 708.936 89.4627 726.871 88.6008C744.806 87.7388 746.799 103.254 755.766 118.338Z" stroke="#223AD8" stroke-width="4"/>
<path d="M815.55 64.4659C816.347 56.1911 801.932 54.4097 794.625 54.5533H770.712C758.257 54.5533 746.799 79.5502 755.766 94.2035C762.94 105.926 788.979 101.961 801.102 98.5133C800.604 101.243 802.796 109.029 815.55 118.338C831.492 129.975 808.077 113.598 794.625 106.702C781.174 99.8063 784.163 113.598 794.625 123.941C805.088 134.285 823.023 128.682 833.485 128.682C843.947 128.682 829.001 104.116 815.55 94.2035C802.098 84.291 781.174 88.6008 770.712 79.5502C760.25 70.4996 794.625 74.8093 799.607 73.5165C804.589 72.2236 814.553 74.8093 815.55 64.4659Z" stroke="#223AD8" stroke-width="4"/>
</svg>
